<?xml version="1.0" encoding="utf-8"?>
<!-- Designed by Vexels.com - 2020 All Rights Reserved - https://vexels.com/terms-and-conditions/  -->
<svg version="1.1" id="Capa_1" xmlns="http://www.w3.org/2000/svg" xmlns:xlink="http://www.w3.org/1999/xlink" x="0px" y="0px"
	 viewBox="0 0 1200 1200" enable-background="new 0 0 1200 1200" xml:space="preserve">
<g>
	<g>
		<g>
			<path fill="#E0C1A2" d="M974.553,382.143c-1.344-0.661-2.893-0.661-4.373-0.615c-9.179,0.319-24.294,8.366-27.06,4.51
				c-2.766-3.856,37.819-27.043,25.741-36.226c-12.077-9.183-32.234,26.194-33.873,22.673c-1.639-3.521,26.311-26.804,13.983-38.841
				c-12.328-12.036-29.096,42.362-31.545,39.524c-2.448-2.838,8.2-28.495,12.3-42.731c-27.083-11.571-28.654,23.552-31,42.731
				c0.433-3.576-12.573-24.008-16.309-25.146c-25.055-7.585,0.137,41.865,3.963,47.878c-0.706,5.831-4.852,11.731-10.569,17.197
				c-1.907,1.829-4,3.593-6.184,5.289l-3.588-26.746c-5.877,7.904-13.052,14.919-21.274,21.138c0,0,0,0.023-0.023,0.045
				c-73.207,55.532-227.161,47.628-236.386,31c-3.189-12.687-9.111-22.072-21.798-24.395l-4.761-1.845l-0.046-0.046
				c1.481-1.913,3.075-3.94,4.806-6.059c18.905,3.257,40.089,0.137,56.58-6.833c1.276,2.187,2.916,4.419,4.92,6.674
				c18.222,20.5,47.833-11.389,47.833-11.389c2.278,13.667-15.944,18.222-15.944,18.222s9.111,9.111,25.055,2.278
				c15.944-6.833,6.947-30.545,6.947-30.545s7.107,6.013,22.322,11.024c15.193,5.011,25.397-10.09,25.397-10.09l-25.055-11.389
				c0,0,9.111-2.278,22.778-11.389s6.833-20.5,6.833-20.5s-11.389,6.833-18.222,9.111s-11.389-2.278-11.389-2.278
				s6.833-4.556,13.667-18.222c6.583-13.143-1.617-28.404-2.255-29.543c0.273,1.367,3.713,20.341-18.245,18.154
				c-8.245-0.843-3.462-12.209-7.585-13.667l4.874-12.323l6.401-16.195l0.774-1.048l9.384,6.879l29.178-5.854v0.023
				c13.439,6.56,28.449,25.101,70.998,25.101c24.121,0,40.111-7.129,49.951-15.443c0,0,3.303-0.888,5.125-0.888
				c7.357,0,13.325-5.968,13.325-13.325c0-0.517-0.036-1.024-0.093-1.526c-0.017-0.152-0.046-0.299-0.068-0.449
				c-0.052-0.354-0.115-0.704-0.194-1.048c-0.036-0.156-0.077-0.31-0.119-0.464c-0.093-0.346-0.2-0.686-0.32-1.021
				c-0.045-0.125-0.088-0.251-0.137-0.374c-0.16-0.407-0.338-0.804-0.536-1.19c-0.02-0.04-0.037-0.081-0.058-0.121
				c-0.715-1.365-1.662-2.583-2.783-3.618c-0.017-0.015-0.034-0.03-0.05-0.046c-0.372-0.34-0.761-0.659-1.169-0.955l0,0
				c18.634,0.059,29.991-45.952,29.991-45.952l-60.042-9.999c0,0,3.168,41.501,22.345,53.418c-0.031,0-0.06-0.005-0.091-0.005
				c-7.357,0-13.325,5.968-13.325,13.348c0,2.118,0.501,4.123,1.39,5.899l-2.551,1.686c-7.289,4.35-18.291,8.564-34.804,11.457
				c-31.524,5.535-65.007-16.855-65.007-16.855l48.607-9.749l3.143-19.771l-1.344-1.002L655.347,118.47l-97.352,12.938l-0.273,0.615
				l-7.22,16.491l54.94,40.225l-18.883,26.308l-6.833,9.521c-14.509-7.494-18.222,4.533-18.222,4.533
				c-17.471,31.479-31.889-4.556-54.666,18.222c-22.778,22.778-15.944,41-15.944,41c-6.833,13.667-25.055,0-25.055,0
				c-9.111,22.778,13.667,34.166,13.667,34.166c-18.222,36.444,22.778,41,22.778,41c-4.556-6.833,0-20.5,0-20.5
				c8.382,10.5,18.723,14.213,27.424,15.193l-0.091,0.752c4.966,12.414,13.575,26.832,24.418,36.968c0,0-1.526,5.398-4.806,11.822
				c0,0-17.926-3.736-38.722-0.797l-0.023-0.091c0,0-109.925-85.074-110.221-196.184c-0.023-8.132,0.547-16.423,1.799-24.828
				c0,0-12.687-12.049-27.971,3.075h-0.023c-3.417-6.56-5.672-15.193-3.895-25.853l0.091-0.661
				c8.929,2.346,17.197,1.731,18.131-3.895c0.159-0.957,0.137-1.959-0.068-2.961l0.182-0.023l11.89,5.808l12.687,6.196
				l40.977,20.021c0,0,34.964-16.742,11.161-64.643l-27.857-7.608l44.029-42.959l-13.53-3.804l1.481-10.296l-40.567,53.573
				L444.062,50l-10.296,9.68L425.042,50l-4.874,60.588l-9.362-2.551l-34.258-9.362h-0.023c-0.319-1.503-0.911-2.824-1.799-3.963
				c-0.683-0.888-7.289-2.551-15.58-4.328c-4.601-0.979-9.703-2.004-14.623-2.961c-3.576-0.683-7.061-1.344-10.159-1.936
				c-6.97-1.276-12.027-2.164-12.027-2.164l-74.756-13.689c0,0.888-39.109,7.699-21.753,58.083l78.287,1.162l0.547,0.068
				c-1.891,11.844,4.51,18.199,13.689,20.91c3.576,1.07,7.585,1.572,11.685,1.64v0.342c-6.788,20.135-10.706,42.116-9.271,63.549
				l-0.706,0.046c0,0-37.242,48.585-33.916,67.923h-0.182c0,0-2.847,7.289,2.574,13.712c0,0,0.023,0.023,0.046,0.068
				c2.141,3.326,71.089,109.925,169.147,139.559l0.068,0.091c-23.871,19.224-57.4-3.508-112.635,34.668
				c-15.352,10.591-27.743,22.778-37.15,33.642c-4.51,5.193-8.314,10.09-11.457,14.395c-7.038,9.703-10.592,16.332-10.592,16.332
				l23.461,54.234l48.585-9.703c0,0-8.405-6.902-5.102-26.468c0.957-5.626,2.87-12.323,6.241-20.204
				c2.938-6.879,6.993-14.669,12.459-23.438c0,0,11.867-22.96,36.604-37.036c14.509-8.246,39.588-5.854,52.89-14.122
				c1.458-0.911,2.847-1.799,4.168-2.665l0.023,0.023c-1.913,2.05-63.664,68.082-90.564,168.987
				c-14.054,52.662-19.657,97.534-21.821,128.694c-2.027,29.474-0.957,46.694-0.957,46.694s6.993,1.253,19.52,1.298
				c0,0-8.132,23.757-3.576,48.812c4.556,25.055,68.333,215.408,68.333,215.408s-34.189,22.527-27.72,83.662
				c0,0,48.198-18.222,49.951-75.257l15.42,33.415h4.578l-18.837-51.842l-0.114-0.023c3.645-24.486,24.987-182.153-23.279-230.418
				c0,0,24.531-20.91,34.007-36.171l26.194-9.02l0.296-0.068c3.872,14.168,12.778,40.795,26.832,49.519c0,0,0,0,0.023,0
				c2.004,1.276,4.123,2.141,6.332,2.574c23.757,4.556,244.973,12.232,244.973,12.232s0,0.023,0.023,0.068
				c0.683,1.777,15.739,40.111,53.983,53.3c0,0,13.872-44.713-16.104-67.627l21.912-1.139v-3.827l-59.495-13.006l-0.387,1.777
				c-29.224-14.487-111.975-53.208-163.179-54.393c-18.108-0.41-38.745,15.557-38.745,15.557l9.954-34.349
				c9.908-3.485,104.048-36.877,106.212-49.815c0,0-0.091-0.114-0.251-0.319c-1.07-1.344-5.512-6.902-12.209-15.056h-0.023
				c-21.047-25.579-64.552-76.669-96.85-103.069c0,0-0.023-0.023-0.068-0.046c-24.942-20.5,4.146-49.109,4.146-49.109
				c7.38,19.839,22.459,41.228,52.092,59.86c15.512,9.749,27.743,17.243,37.287,23.005c5.398,3.234,9.908,5.899,13.689,8.109
				c11.89,6.947,16.263,9.134,16.263,9.134l34.827-14.122l-21.456-47.947c0,0-7.881,0.228-19.976-1.708
				c-3.576-0.569-7.539-1.321-11.776-2.346c-14.395-3.439-31.957-9.84-48.858-21.616c-12.232-8.519-17.516-22.641-20.318-38.175
				c4.146,15.808,51.705,44.94,217.914,27.925c6.378-0.638,12.915-1.344,19.634-2.141c16.901,5.945,22.117-15.17,23.78-51.227
				v-0.023c3.234-3.257,6.628-6.97,10.956-11.753c15.717-17.357,21.593-40.111,21.593-40.111
				c11.844-4.761,23.689-9.521,35.533-14.304C948.882,404.875,991.773,390.844,974.553,382.143z"/>
			<path fill="#F7FFFF" d="M628.948,375.06c0,0.091,0,0.182-0.023,0.273c-1.822,13.849-33.984,9.567-51.477-0.456
				c-17.015-9.772-28.472-28.905-21.183-38.745c7.289-9.84,32.686,22.778,32.686,22.778S630.223,361.461,628.948,375.06z"/>
			<g>
				<path fill="#F7FFFF" d="M465.222,122.888l-27.857-7.608l-8.883-2.414l-3.895-1.07c0,0-21.343,15.056-11.503,55.714
					l40.977,20.021C454.061,187.531,489.025,170.79,465.222,122.888z"/>
				<path fill="#F7FFFF" d="M225.829,127.717l78.287,1.162c-9.749-31.41,18.222-45.555,18.222-45.555l-74.756-13.689
					C247.582,70.523,208.473,77.333,225.829,127.717z"/>
				<path fill="#F7FFFF" d="M410.806,108.037l-34.258-9.362h-0.023c2.414,10.432-7.334,28.426-15.808,36.034
					c11.48,1.777,25.875,12.004,27.606,20.819l0.182-0.023l11.89,5.808C388.188,126.282,410.806,108.037,410.806,108.037z"/>
			</g>
			<g>
				<g>
					<path fill="#DCB941" d="M716.505,561.927c0,0-7.881,0.228-19.976-1.708c-3.576-0.569-7.539-1.321-11.776-2.346
						c-14.395-3.439-31.957-9.84-48.858-21.616c-12.232-8.519-17.516-22.641-20.318-38.175c-0.023-0.046-0.046-0.091-0.046-0.137
						c-3.325-18.359-3.257-38.676-7.175-54.12c-3.189-12.687-9.111-22.072-21.798-24.395l-4.761-1.845l-0.046-0.046
						c-8.359,10.933-12.869,18.928-15.147,24.714l1.731,0.091c0,0,10.842,7.517,9.111,33.073c-0.82,12.414-0.661,29.77,6.355,48.471
						c7.38,19.839,22.459,41.228,52.092,59.86c15.512,9.749,27.743,17.243,37.287,23.005c5.398,3.234,9.908,5.899,13.689,8.109
						c11.89,6.947,16.263,9.134,16.263,9.134l34.827-14.122L716.505,561.927z"/>
					<path fill="#DCB941" d="M510.504,406.925c-16.24,2.278-34.212,8.61-46.808,23.939c-1.913,2.323-3.872,4.259-5.899,5.922
						c-23.871,19.224-57.4-3.508-112.635,34.668c-15.352,10.591-27.743,22.778-37.15,33.642c-4.51,5.193-8.314,10.09-11.457,14.395
						c-7.038,9.703-10.592,16.332-10.592,16.332l23.461,54.234l48.585-9.703c0,0-8.405-6.902-5.102-26.468
						c0.957-5.626,2.87-12.323,6.241-20.204c2.938-6.879,6.993-14.669,12.459-23.438c0,0,11.867-22.96,36.604-37.036
						c14.509-8.246,39.588-5.854,52.89-14.122c1.458-0.911,2.847-1.799,4.168-2.665c16.332-10.706,23.347-18.883,29.338-22.436
						c18.518-11.024,35.009-6.127,35.009-6.127c9.271-3.098,15.694-12.368,19.612-20.135
						C549.226,407.723,531.3,403.987,510.504,406.925z"/>
				</g>
				<g>
					<path fill="#DCB941" d="M934.669,221.265c0,0-11.357,46.011-29.991,45.952c3.344,2.424,5.528,6.354,5.528,10.81
						c0,7.357-5.968,13.325-13.325,13.325c-1.822,0-3.553-0.365-5.125-1.025v1.913c-9.84,8.314-25.83,15.443-49.951,15.443
						c-42.549,0-57.559-18.541-70.998-25.101v-0.023l11.776-2.346c0,0,33.483,22.39,65.007,16.855
						c16.514-2.893,27.515-7.107,34.804-11.457l2.551-1.686c-0.888-1.777-1.39-3.781-1.39-5.899c0-7.38,5.968-13.348,13.325-13.348
						c0.031,0,0.061,0.004,0.091,0.005c-19.177-11.917-22.345-53.418-22.345-53.418L934.669,221.265z"/>
					<path fill="#DCB941" d="M413.084,167.51c-9.84-40.658,11.503-55.714,11.503-55.714l3.895,1.07l8.883,2.414l44.029-42.959
						l-13.53-3.804l1.481-10.296l-40.567,53.573L444.062,50l-10.296,9.68L425.042,50l-4.874,60.588l-9.362-2.551
						c0,0-22.618,18.245-10.409,53.277L413.084,167.51z"/>
				</g>
			</g>
			<g>
				<path fill="#DB714A" d="M555.952,305.272c-3.053,2.278,1.236,5.385,4.542,2.124
					C563.799,304.134,559.005,302.994,555.952,305.272z"/>
				<path fill="#DB714A" d="M559.739,316.447c-2.477,1.848,1.003,4.369,3.685,1.723
					C566.105,315.524,562.215,314.599,559.739,316.447z"/>
				<path fill="#DB714A" d="M575.511,318.343c3.303-3.257-1.481-4.396-4.533-2.118C567.927,318.503,572.209,321.6,575.511,318.343z"
					/>
				<path fill="#DB714A" d="M624.445,348.862c-2.477,1.848,1.003,4.369,3.685,1.723S626.922,347.014,624.445,348.862z"/>
				<path fill="#DB714A" d="M641.642,350.209c-2.477,1.848,1.003,4.369,3.685,1.723S644.119,348.361,641.642,350.209z"/>
				<g>
					<path fill="#DB714A" d="M764.224,347.544c0,0-11.389,6.833-18.222,9.111s-11.389-2.278-11.389-2.278s6.833-4.556,13.667-18.222
						c6.583-13.143-1.617-28.404-2.255-29.543c0.273,1.367,3.713,20.341-18.245,18.154c-8.245-0.843-3.462-12.209-7.585-13.667
						c-0.547-0.205-1.276-0.228-2.21,0c-6.765,1.549-14.122,0.979-21.775-1.185l-0.319,1.185
						c-9.111,22.778-6.833,50.111-20.5,66.055s-31.889-4.556-31.889-4.556s-10.819,14.418-0.365,32.048
						c1.276,2.187,2.916,4.419,4.92,6.674c18.222,20.5,47.833-11.389,47.833-11.389c2.278,13.667-15.944,18.222-15.944,18.222
						s9.111,9.111,25.055,2.278c15.944-6.833,6.947-30.545,6.947-30.545s7.107,6.013,22.322,11.024
						c15.193,5.011,25.397-10.09,25.397-10.09l-25.055-11.389c0,0,9.111-2.278,22.778-11.389S764.224,347.544,764.224,347.544z"/>
					<path fill="#DB714A" d="M561.503,229.1c-17.471,31.479-31.889-4.556-54.666,18.222c-22.778,22.778-15.944,41-15.944,41
						c-6.833,13.667-25.055,0-25.055,0c-9.111,22.778,13.667,34.166,13.667,34.166c-18.222,36.444,22.778,41,22.778,41
						c-4.556-6.833,0-20.5,0-20.5c8.382,10.5,18.723,14.213,27.424,15.193c10.182,1.116,18.131-1.526,18.131-1.526
						c-31.82-20.044-15.944-66.055-15.944-66.055s0,9.111,4.555,18.222c4.556,9.111,9.111,6.833,9.111,6.833
						c-4.556-29.611,18.222-52.389,18.222-52.389c14.896-13.53,21.206-20.887,35.305-24.805
						c-11.913-10.273-19.361-13.894-19.361-13.894C565.216,217.074,561.503,229.1,561.503,229.1z"/>
					<path fill="#DB714A" d="M684.753,557.873l-0.228,0.979l12.004,31.205l-23.347,16.696c5.398,3.234,9.908,5.899,13.689,8.109
						l25.078-16.445l-15.42-38.198C692.953,559.649,688.99,558.898,684.753,557.873z"/>
					<path fill="#DB714A" d="M329.581,541.427l-20.158-35.1l-1.412-1.23c-4.51,5.193-8.314,10.09-11.457,14.395l23.917,42.435
						l32.435-8.04c0.957-5.626,2.87-12.323,6.241-20.204l-1.139-0.501L329.581,541.427z"/>
				</g>
			</g>
			<g>
				<path fill="#43538F" d="M457.797,436.787c2.027-1.663,3.986-3.599,5.899-5.922c12.596-15.329,30.568-21.662,46.808-23.939
					l-0.023-0.091c0,0-109.925-85.074-110.221-196.184c-0.023-8.132,0.547-16.423,1.799-24.828c0,0-12.687-12.049-27.971,3.075
					h-0.023c5.33,10.273,13.462,15.466,13.462,15.466c-13.37,16.673-34.007,41.319-53.208,60.065
					c-6.127-9.066-8.792-20.955-11.093-31.433c-1.276-5.808-2.073-11.685-2.46-17.607l-0.706,0.046c0,0-37.242,48.585-33.916,67.923
					h-0.182c0,0-2.847,7.289,2.574,13.712c0,0,0.023,0.023,0.046,0.068c2.141,3.326,71.089,109.925,169.147,139.559L457.797,436.787
					z"/>
				<path fill="#43538F" d="M586.559,215.047l-6.833,9.521c0,0,7.448,3.622,19.361,13.894c2.209,1.913,4.578,4.032,7.061,6.401
					c23.712,22.55,59.381,56.42,90.063,65.053c7.653,2.164,15.01,2.733,21.775,1.185c0.934-0.228,1.663-0.205,2.21,0l4.874-12.323
					l6.401-16.195l0.774-1.048l9.384,6.879l29.178-5.854l11.776-2.346l48.607-9.749l3.143-19.771l-1.344-1.002L655.347,118.47
					l-97.352,12.938l-0.273,0.615l-7.22,16.491l54.94,40.225L586.559,215.047z"/>
				<path fill="#43538F" d="M676.599,676.111h-0.023c-21.047-25.579-64.552-76.669-96.85-103.069c0,0-0.023-0.023-0.068-0.046
					c-24.942-20.5,4.146-49.109,4.146-49.109c-7.016-18.7-7.175-36.057-6.355-48.471c1.731-25.557-9.111-33.073-9.111-33.073
					l-1.731-0.091c-4.464,11.252-0.547,14.145-0.547,14.145s-9.043,9.179-24.235-3.166c-15.17-12.346-12.209-25.374-12.209-25.374
					s-16.491-4.897-35.009,6.127c-5.991,3.553-13.006,11.73-29.338,22.436l0.023,0.023c-1.913,2.05-63.664,68.082-90.564,168.987
					c-14.054,52.662-19.657,97.534-21.821,128.694c-2.027,29.474-0.957,46.694-0.957,46.694s6.993,1.253,19.52,1.298
					c20.955,0.068,57.354-3.234,102.408-21.434c-0.182,2.528-1.549,5.649-3.644,9.02l26.194-9.02l0.296-0.068
					c-1.503-5.467-2.255-9.065-2.255-9.065c18.313-8.815,37.742-20.09,57.923-34.508c14.441-10.318,27.424-18.723,39.109-25.557
					l-8.656,29.816c9.908-3.485,104.048-36.877,106.212-49.815c0,0-0.091-0.114-0.251-0.319
					C687.737,689.824,683.295,684.266,676.599,676.111z"/>
				<path fill="#43538F" d="M866.04,391.642c-5.877,7.904-13.052,14.919-21.274,21.138c0,0,0,0.023-0.023,0.045
					c-73.207,55.532-227.161,47.628-236.386,31c3.918,15.443,3.849,35.761,7.175,54.12c0,0.046,0.023,0.091,0.046,0.137
					c4.146,15.808,51.705,44.94,217.914,27.925c6.378-0.638,12.915-1.344,19.634-2.141c16.901,5.945,22.117-15.17,23.78-51.227
					L866.04,391.642z"/>
			</g>
			<g>
				<path fill="#1D253A" d="M834.698,825.715v3.827l-21.912,1.139c29.975,22.914,16.104,67.627,16.104,67.627
					c-38.244-13.188-53.3-51.523-53.983-53.3c0.752,1.071,10.728,15.876,15.808,15.876c5.284,0-5.262-41-5.262-41
					s-3.895-2.05-10.637-5.398l0.387-1.777L834.698,825.715z"/>
				<g>
					<path fill="#1D253A" d="M668.467,283.015c-17.06-11.343-30.18-27.037-45.806-40.066c-11.594-9.68-23.871-19.019-36.102-27.903
						l-6.833,9.521c0,0,7.448,3.622,19.361,13.894c2.209,1.913,4.578,4.032,7.061,6.401c23.712,22.55,59.381,56.42,90.063,65.053
						c7.653,2.164,15.01,2.733,21.775,1.185c0.934-0.228,1.663-0.205,2.21,0l4.874-12.323
						C705.048,300.827,685.049,293.994,668.467,283.015z"/>
					<polygon fill="#1D253A" points="832.99,249.691 831.646,251.514 746.549,268.005 558.269,132.273 557.722,132.022 
						550.502,148.513 605.441,188.738 732.244,281.535 741.629,288.413 770.807,282.56 782.583,280.214 831.19,270.465 
						834.334,250.694 					"/>
				</g>
				<path fill="#1D253A" d="M459.619,1056.316l18.837,51.842h-4.578l-15.42-33.415c-1.754,57.035-49.951,75.257-49.951,75.257
					c-6.469-61.135,27.72-83.662,27.72-83.662s-13.667,20.5-6.833,25.055c6.833,4.556,29.611-31.889,29.611-31.889
					s0.182-1.116,0.501-3.212L459.619,1056.316z"/>
				<g>
					<path fill="#1D253A" d="M688.807,691.167c-1.07-1.344-5.512-6.902-12.209-15.056h-0.023
						c-30.704-15.398-62.707-9.658-142.406,42.708c-79.722,52.389-181.264,35.305-181.264,35.305
						c-2.027,29.474-0.957,46.694-0.957,46.694s6.993,1.253,19.52,1.298c20.955,0.068,57.354-3.234,102.408-21.434
						c-0.182,2.528-1.549,5.649-3.644,9.02l26.194-9.02l0.296-0.068c-1.503-5.467-2.255-9.065-2.255-9.065
						c18.313-8.815,37.742-20.09,57.923-34.508c14.441-10.318,27.424-18.723,39.109-25.557l-8.656,29.816
						c9.908-3.485,104.048-36.877,106.212-49.815C689.058,691.486,688.967,691.372,688.807,691.167z"/>
					<path fill="#1D253A" d="M402.06,185.823c0,0-12.687-12.049-27.971,3.075h-0.023c5.33,10.273,13.462,15.466,13.462,15.466
						c-13.37,16.673-34.007,41.319-53.208,60.065c-6.127-9.066-8.792-20.955-11.093-31.433c-1.276-5.808-2.073-11.685-2.46-17.607
						l-0.706,0.046c0,0-37.242,48.585-33.916,67.923h-0.182c0,0-2.847,7.289,2.574,13.712c0,0,0.023,0.023,0.046,0.068
						c1.458,1.731,3.531,3.417,6.423,4.852c31.114,15.557,101.884-86.418,105.255-91.338
						C400.238,202.519,400.807,194.228,402.06,185.823z"/>
				</g>
				<path fill="#1D253A" d="M876.905,472.639l-10.865-80.997c-5.877,7.904-13.052,14.919-21.274,21.138c0,0,0,0.023-0.023,0.045
					c-0.916,0.695-1.854,1.372-2.794,2.047c1.268,36.841,6.672,74.228,18.662,109.756
					C871.655,522.368,875.519,502.707,876.905,472.639z"/>
			</g>
		</g>
		<g>
			<g>
				<path fill="none" stroke="#000000" stroke-linecap="round" stroke-linejoin="round" stroke-miterlimit="10" d="M580.653,410.229
					c-5.763-1.461-11.228-3.581-16.179-6.439c-2.506-1.447-4.935-3.162-7.274-5.088"/>
				<path fill="none" stroke="#000000" stroke-linecap="round" stroke-linejoin="round" stroke-miterlimit="10" d="M568.348,290.591
					c0,0,22.778-4.556,22.778,22.778"/>
				<path fill="none" stroke="#000000" stroke-linecap="round" stroke-linejoin="round" stroke-miterlimit="10" d="M623.448,332.053
					c0,0,17.354-15.44,31.165,8.147"/>
				<path fill="none" stroke="#000000" stroke-linecap="round" stroke-linejoin="round" stroke-miterlimit="10" d="M590.221,333.299
					c2.516-4.358,8.53-5.596,13.432-2.765c4.902,2.83,6.837,8.658,4.321,13.015"/>
				<path fill="none" stroke="#000000" stroke-linecap="round" stroke-linejoin="round" stroke-miterlimit="10" d="M577.459,374.868
					c-17.019-9.767-28.478-28.905-21.196-38.742c7.282-9.837,32.691,22.779,32.691,22.779s41.808,2.579,39.974,16.427
					C627.094,389.179,594.93,384.894,577.459,374.868z"/>
				<path fill="none" stroke="#000000" stroke-linecap="round" stroke-linejoin="round" stroke-miterlimit="10" d="M579.737,363.479
					c-20.5-11.389-22.778-27.333-22.778-27.333"/>
				<path fill="none" stroke="#000000" stroke-linecap="round" stroke-linejoin="round" stroke-miterlimit="10" d="M629.847,374.868
					c0,0-20.5,4.556-36.444-4.556"/>
				<path fill="none" stroke="#000000" stroke-linecap="round" stroke-linejoin="round" stroke-miterlimit="10" d="M609.347,286.035
					c0,0-6.833-13.667-22.778-11.389"/>
				<path fill="none" stroke="#000000" stroke-linecap="round" stroke-linejoin="round" stroke-miterlimit="10" d="M641.236,306.535
					c0,0,20.5-2.278,25.055,15.944"/>
				<polyline fill="none" stroke="#000000" stroke-linecap="round" stroke-linejoin="round" stroke-miterlimit="10" points="
					304.752,522.131 321.925,557.074 348.718,550.437 				"/>
				<path fill="none" stroke="#000000" stroke-linecap="round" stroke-linejoin="round" stroke-miterlimit="10" d="M338.598,146.466
					c0,0-2.707-21.543,19.791-53.943"/>
				<path fill="none" stroke="#000000" stroke-linecap="round" stroke-linejoin="round" stroke-miterlimit="10" d="M318.039,145.744
					c-2.435-24.889,5.812-37.781,23.53-55.085"/>
				<path fill="none" stroke="#000000" stroke-linecap="round" stroke-linejoin="round" stroke-miterlimit="10" d="M307.524,122.888
					c3.572-15.951,6.127-30.588,23.716-35.154"/>
				<path fill="none" stroke="#000000" stroke-linecap="round" stroke-linejoin="round" stroke-miterlimit="10" d="M465.224,122.881
					c0,0-34.681,17.928-11.168,64.659c0,0,13.226-18.894,11.168-36.78c-2.057-17.886-11.756-9.069-11.168,4.451
					c0.588,13.52,6.172,1.47,6.172,1.47"/>
				<polyline fill="none" stroke="#000000" stroke-linecap="round" stroke-linejoin="round" stroke-miterlimit="10" points="
					684.898,611.846 707.401,594.865 690.495,560.219 				"/>
				<path fill="none" stroke="#000000" stroke-linecap="round" stroke-linejoin="round" stroke-miterlimit="10" d="M529.381,825.907
					c0,0,16.079,2.934,27.835-27.044"/>
				<path fill="none" stroke="#000000" stroke-linecap="round" stroke-linejoin="round" stroke-miterlimit="10" d="M370.42,840.378
					c0,0-5.417,13.738,29.263,3.158"/>
				<path fill="none" stroke="#000000" stroke-linecap="round" stroke-linejoin="round" stroke-miterlimit="10" d="M719.031,315.033
					c0,0-10.768,40.822,11.588,44.175"/>
				<path fill="none" stroke="#000000" stroke-linecap="round" stroke-linejoin="round" stroke-miterlimit="10" d="M696.086,389.894
					c0,0,9.746-20.851,1.763-38.735"/>
				<path fill="none" stroke="#000000" stroke-linecap="round" stroke-linejoin="round" stroke-miterlimit="10" d="M531.904,290.591
					c0,0-2.902-16.263,11.646-26.152"/>
				<path fill="none" stroke="#000000" stroke-linecap="round" stroke-linejoin="round" stroke-miterlimit="10" d="M502.293,342.979
					c0,0-14.805-27.375,0-39.386"/>
				<path fill="none" stroke="#000000" stroke-linecap="round" stroke-linejoin="round" stroke-miterlimit="10" d="M490.904,288.313
					c0,0,1.065-15.308,14.732-23.874"/>
				<path fill="none" stroke="#000000" stroke-linecap="round" stroke-linejoin="round" stroke-miterlimit="10" d="M715.86,333.645
					c0,0-11.233,20.613,0,29.834"/>
				<path fill="none" stroke="#000000" stroke-linecap="round" stroke-linejoin="round" stroke-miterlimit="10" d="M643.514,372.59
					c0,0,2.816,23.604,29.678,23.319"/>
				<path fill="none" stroke="#000000" stroke-linecap="round" stroke-linejoin="round" stroke-miterlimit="10" d="M906.375,391.605
					c0,0-3.87-12.138-7.641-18.445"/>
			</g>
			
				<line fill="none" stroke="#000000" stroke-linecap="round" stroke-linejoin="round" stroke-miterlimit="10" x1="609.077" y1="139.65" x2="688.885" y2="155.211"/>
			
				<line fill="none" stroke="#000000" stroke-linecap="round" stroke-linejoin="round" stroke-miterlimit="10" x1="629.847" y1="167.514" x2="737.968" y2="188.909"/>
			
				<line fill="none" stroke="#000000" stroke-linecap="round" stroke-linejoin="round" stroke-miterlimit="10" x1="700.992" y1="201.06" x2="746.538" y2="210.348"/>
			<path fill="none" stroke="#000000" stroke-linecap="round" stroke-linejoin="round" stroke-miterlimit="10" d="M341.569,148.422
				c0,0,14.09-2.003,19.15-10.649"/>
			
				<line fill="none" stroke="#000000" stroke-linecap="round" stroke-linejoin="round" stroke-miterlimit="10" x1="424.587" y1="108.037" x2="428.482" y2="71.355"/>
			
				<line fill="none" stroke="#000000" stroke-linecap="round" stroke-linejoin="round" stroke-miterlimit="10" x1="436.548" y1="111.796" x2="460.942" y2="81.433"/>
			<path fill="none" stroke="#000000" stroke-linecap="round" stroke-linejoin="round" stroke-miterlimit="10" d="M410.492,112.866
				c0,0-18.617,16.094-6.567,45.191"/>
			<path fill="none" stroke="#000000" stroke-linecap="round" stroke-linejoin="round" stroke-miterlimit="10" d="M579.725,426.774
				c0,0,22.846,9.317,19.924,39.295s-6.369,105.806,73.533,131.669"/>
			<path fill="none" stroke="#000000" stroke-linecap="round" stroke-linejoin="round" stroke-miterlimit="10" d="M537.608,417.54
				c0,0-36.638-16.532-49.892,13.849"/>
			<path fill="none" stroke="#000000" stroke-linecap="round" stroke-linejoin="round" stroke-miterlimit="10" d="M304.331,90.385
				l-55.588-8.952c0,0-23.512,14.398-11.756,44.009"/>
			
				<line fill="none" stroke="#000000" stroke-linecap="round" stroke-linejoin="round" stroke-miterlimit="10" x1="262.85" y1="95.308" x2="288.582" y2="100.839"/>
		</g>
		<path fill="none" stroke="#000000" stroke-linecap="round" stroke-linejoin="round" stroke-miterlimit="10" d="M577.459,575.311
			c0,0-28.692-15.173-22.52-37.216"/>
		
			<line fill="none" stroke="#000000" stroke-linecap="round" stroke-linejoin="round" stroke-miterlimit="10" x1="885.55" y1="218.444" x2="896.003" y2="251.977"/>
		
			<line fill="none" stroke="#000000" stroke-linecap="round" stroke-linejoin="round" stroke-miterlimit="10" x1="904.648" y1="219.632" x2="904.648" y2="255.927"/>
		
			<line fill="none" stroke="#000000" stroke-linecap="round" stroke-linejoin="round" stroke-miterlimit="10" x1="923.085" y1="230.097" x2="912.844" y2="253.235"/>
	</g>
	<path fill="none" stroke="#000000" stroke-linecap="round" stroke-linejoin="round" stroke-miterlimit="10" d="M517.813,431.389
		c0,0-2.446,47.025,52.121,34.681"/>
</g>
</svg>
